<?xml version="1.0" encoding="UTF-8"?>
<svg xmlns="http://www.w3.org/2000/svg" xmlns:xlink="http://www.w3.org/1999/xlink" width="658px"
    height="500px" viewBox="0 0 658 500" version="1.1">
    <g id="surface1">
        <path style=" stroke:none;fill-rule:nonzero;fill-opacity:1;"
            d="M 0 0.136719 L 658 0.136719 L 658 499.863281 L 0 499.863281 Z M 0 0.136719 " />
        <path
            style=" stroke:none;fill-rule:nonzero;fill:rgb(13.333334%,16.078432%,24.313726%);fill-opacity:1;"
            d="M 215.585938 128.039062 L 215.90625 128.039062 L 215.585938 179.136719 L 215.585938 240.839844 L 160.644531 240.839844 L 160 241.484375 L 160.324219 253.695312 L 160.644531 256.910156 L 160.644531 261.410156 L 160 268.800781 L 160 272.976562 L 160.324219 275.871094 L 160.324219 279.726562 L 159.359375 281.65625 L 156.46875 285.191406 L 151.007812 290.652344 L 149.398438 292.582031 L 146.828125 294.832031 L 143.296875 298.367188 L 140.082031 300.9375 L 137.511719 302.222656 L 136.226562 302.542969 L 124.660156 302.542969 L 119.199219 302.222656 L 115.34375 302.222656 L 113.09375 302.542969 L 111.808594 302.222656 L 110.84375 302.542969 L 110.203125 302.222656 L 110.203125 301.578125 L 111.488281 301.257812 L 111.488281 299.972656 L 108.917969 299.972656 L 108.917969 300.9375 L 107.953125 300.9375 L 107.632812 302.542969 L 103.777344 302.542969 L 100.882812 300.617188 L 99.277344 299.332031 L 97.03125 296.757812 L 95.101562 295.152344 L 92.851562 292.582031 L 88.675781 288.402344 L 86.105469 286.152344 L 81.609375 281.65625 L 80.964844 280.046875 L 80.964844 268.800781 L 81.285156 255.300781 L 87.390625 255.625 L 94.78125 256.589844 L 100.882812 257.230469 L 105.703125 258.515625 L 106.347656 263.015625 L 106.347656 268.15625 L 108.59375 270.726562 L 113.09375 275.546875 L 114.699219 276.835938 L 115.664062 277.15625 L 120.484375 277.15625 L 126.585938 276.835938 L 131.726562 272.65625 L 133.65625 270.40625 L 134.621094 267.515625 L 134.621094 253.054688 L 133.015625 251.125 L 127.875 248.234375 L 120.484375 244.699219 L 114.378906 241.484375 L 109.558594 238.589844 L 103.453125 235.378906 L 95.742188 231.84375 L 88.675781 227.984375 L 82.25 224.773438 L 81.285156 223.808594 L 80.964844 219.308594 L 80.964844 187.492188 L 81.285156 183.957031 L 83.535156 181.386719 L 87.390625 177.851562 L 90.925781 174.316406 L 91.566406 174.640625 L 91.566406 175.28125 L 92.210938 175.28125 L 92.210938 175.925781 L 93.496094 174.960938 L 93.171875 172.066406 L 102.492188 162.75 L 103.777344 162.425781 L 124.339844 162.425781 L 139.4375 162.75 L 157.429688 180.746094 L 160 183.957031 L 160.324219 186.207031 L 159.679688 186.207031 L 160.644531 188.777344 L 160.644531 191.027344 L 160.324219 192.636719 L 160.324219 201.632812 L 160 210.3125 L 151.96875 208.703125 L 143.617188 207.417969 L 136.226562 206.453125 L 135.261719 206.132812 L 134.941406 205.167969 L 134.621094 198.097656 L 134.296875 195.207031 L 132.691406 193.601562 L 131.40625 192.636719 L 131.40625 191.992188 L 130.121094 191.351562 L 127.550781 189.101562 L 124.660156 188.136719 L 116.304688 187.492188 L 113.414062 188.457031 L 110.523438 191.671875 L 108.917969 193.277344 L 106.988281 195.847656 L 106.347656 197.777344 L 106.023438 200.992188 L 106.023438 210.3125 L 105.703125 210.953125 L 109.882812 213.523438 L 124.660156 221.878906 L 135.585938 227.664062 L 146.828125 233.449219 L 155.503906 237.949219 L 158.074219 239.554688 L 160.324219 240.199219 L 163.535156 234.414062 L 168.035156 224.773438 L 171.570312 217.703125 L 175.101562 210.3125 L 182.492188 195.207031 L 186.027344 187.816406 L 191.808594 175.925781 L 195.984375 166.925781 L 200.484375 157.929688 L 204.019531 150.535156 L 210.125 138.003906 L 213.65625 131.253906 Z M 215.585938 128.039062 " />
        <path
            style=" stroke:none;fill-rule:nonzero;fill:rgb(12.941177%,16.078432%,24.313726%);fill-opacity:1;"
            d="M 314.542969 162.105469 L 319.039062 162.425781 L 344.742188 162.75 L 344.742188 182.671875 L 344.421875 187.492188 L 295.90625 188.136719 L 295.585938 190.707031 L 295.265625 213.847656 L 295.585938 214.488281 L 295.90625 217.382812 L 296.226562 217.703125 L 329 218.023438 L 329 243.089844 L 300.40625 243.089844 L 295.90625 242.769531 L 295.265625 244.375 L 295.265625 249.195312 L 295.585938 250.804688 L 295.585938 254.015625 L 295.265625 259.160156 L 295.265625 265.265625 L 294.945312 266.871094 L 295.585938 269.441406 L 295.90625 271.050781 L 295.265625 275.546875 L 295.265625 276.835938 L 299.121094 277.15625 L 341.210938 277.15625 L 344.421875 277.476562 L 344.742188 278.121094 L 344.742188 301.902344 L 343.457031 302.222656 L 336.710938 302.542969 L 303.617188 302.863281 L 301.046875 302.542969 L 280.804688 302.222656 L 272.132812 302.222656 L 270.523438 301.902344 L 270.203125 300.292969 L 270.523438 289.367188 L 269.882812 285.511719 L 269.882812 277.796875 L 269.5625 273.941406 L 269.882812 267.515625 L 270.203125 263.335938 L 269.882812 261.410156 L 269.882812 244.375 L 269.242188 244.375 L 268.597656 245.984375 L 263.136719 257.230469 L 259.601562 264.945312 L 255.425781 273.300781 L 251.890625 280.691406 L 247.714844 289.046875 L 244.179688 296.4375 L 237.753906 309.613281 L 227.152344 331.46875 L 220.082031 345.929688 L 217.511719 350.75 L 216.226562 352.355469 L 215.585938 352.355469 L 215.585938 240.839844 L 231.648438 240.519531 L 269.882812 240.199219 L 270.203125 239.875 L 270.203125 232.808594 L 269.882812 230.558594 L 270.203125 214.808594 L 270.203125 162.75 L 277.59375 162.425781 Z M 314.542969 162.105469 " />
        <path
            style=" stroke:none;fill-rule:nonzero;fill:rgb(13.333334%,16.078432%,23.921569%);fill-opacity:1;"
            d="M 485.46875 163.070312 L 522.09375 163.070312 L 524.664062 165.320312 L 529.164062 170.140625 L 542.976562 183.957031 L 543.300781 184.601562 L 543.621094 191.027344 L 543.300781 208.703125 L 542.976562 210.632812 L 539.125 209.988281 L 525.949219 207.738281 L 520.488281 207.097656 L 518.238281 206.132812 L 517.917969 205.8125 L 517.917969 197.457031 L 517.597656 195.527344 L 516.953125 195.527344 L 512.777344 191.351562 L 512.132812 191.027344 L 512.132812 190.386719 L 510.527344 189.742188 L 507.636719 188.777344 L 502.816406 188.136719 L 498.960938 188.136719 L 496.390625 189.421875 L 491.25 194.886719 L 489.964844 197.777344 L 489.324219 200.992188 L 489.324219 208.0625 L 489.644531 211.917969 L 492.535156 213.847656 L 498.320312 217.058594 L 505.066406 220.917969 L 512.132812 224.773438 L 522.09375 229.914062 L 529.164062 233.769531 L 539.125 238.914062 L 542.335938 240.839844 L 542.976562 241.484375 L 543.300781 244.699219 L 543.300781 279.726562 L 542.335938 282.617188 L 539.125 286.152344 L 536.875 288.726562 L 536.230469 288.726562 L 535.589844 290.011719 L 526.59375 299.007812 L 523.703125 301.257812 L 520.808594 302.863281 L 519.523438 303.1875 L 509.886719 303.507812 L 502.175781 303.1875 L 500.570312 302.863281 L 496.710938 303.1875 L 494.785156 302.863281 L 493.820312 301.902344 L 492.859375 301.578125 L 492.859375 302.542969 L 490.609375 302.542969 L 489.964844 302.863281 L 488.039062 302.863281 L 485.789062 302.542969 L 482.578125 299.972656 L 480.96875 298.042969 L 478.398438 295.796875 L 468.117188 285.511719 L 465.546875 283.261719 L 464.261719 281.332031 L 463.941406 279.726562 L 463.941406 259.160156 L 464.261719 256.265625 L 464.585938 255.945312 L 471.007812 256.265625 L 479.683594 257.550781 L 488.359375 258.515625 L 489 259.480469 L 489.644531 263.015625 L 490.289062 269.765625 L 492.535156 272.015625 L 492.535156 272.65625 L 493.820312 273.300781 L 494.464844 274.90625 L 495.75 275.546875 L 496.390625 276.835938 L 498 277.15625 L 498.320312 277.476562 L 507.636719 277.476562 L 510.207031 276.835938 L 513.097656 274.90625 L 516.632812 271.371094 L 517.917969 268.480469 L 518.238281 265.90625 L 518.238281 255.625 L 517.273438 252.730469 L 512.777344 249.839844 L 498 242.449219 L 490.929688 238.269531 L 474.542969 230.234375 L 468.4375 227.023438 L 465.226562 225.09375 L 464.261719 223.488281 L 463.941406 222.203125 L 463.941406 186.53125 L 464.90625 184.28125 L 467.15625 181.386719 L 470.367188 178.816406 L 472.617188 175.925781 L 474.542969 175.28125 L 474.867188 177.210938 L 475.828125 177.53125 L 476.148438 173.675781 L 477.757812 171.105469 L 484.183594 164.675781 Z M 485.46875 163.070312 " />
        <path
            style=" stroke:none;fill-rule:nonzero;fill:rgb(12.941177%,16.078432%,24.313726%);fill-opacity:1;"
            d="M 399.683594 162.75 L 403.21875 162.75 L 403.859375 163.070312 L 419.925781 162.75 L 421.53125 162.75 L 421.851562 163.710938 L 422.496094 163.710938 L 422.496094 163.070312 L 423.136719 162.75 L 426.351562 162.75 L 428.601562 163.710938 L 432.132812 166.605469 L 444.664062 179.136719 L 449.164062 184.28125 L 449.484375 184.921875 L 449.804688 187.816406 L 449.804688 198.421875 L 449.484375 206.453125 L 448.199219 206.777344 L 441.128906 207.097656 L 431.492188 207.097656 L 427.957031 206.777344 L 425.066406 206.453125 L 424.742188 206.132812 L 424.421875 202.917969 L 424.742188 200.667969 L 424.101562 196.8125 L 422.171875 194.242188 L 418.640625 190.386719 L 417.675781 189.101562 L 415.425781 188.457031 L 406.109375 188.457031 L 397.113281 189.101562 L 394.542969 190.066406 L 391.972656 192.3125 L 388.757812 195.207031 L 387.476562 197.457031 L 387.152344 214.808594 L 387.152344 250.804688 L 387.476562 267.835938 L 388.117188 270.085938 L 389.722656 271.691406 L 389.722656 272.335938 L 390.367188 272.335938 L 392.617188 274.90625 L 394.863281 276.835938 L 396.46875 277.476562 L 408.679688 277.796875 L 415.425781 277.796875 L 417.03125 277.15625 L 423.136719 271.050781 L 424.421875 269.121094 L 424.421875 254.660156 L 448.839844 254.660156 L 449.164062 254.980469 L 449.484375 265.585938 L 449.484375 278.121094 L 449.164062 281.65625 L 447.875 283.582031 L 440.808594 290.652344 L 438.238281 292.902344 L 434.0625 297.082031 L 431.8125 299.652344 L 428.277344 302.863281 L 427.3125 303.1875 L 425.066406 303.1875 L 422.171875 302.863281 L 413.5 303.507812 L 409 303.507812 L 403.859375 303.1875 L 384.582031 303.1875 L 382.335938 302.222656 L 378.476562 298.042969 L 374.300781 294.1875 L 372.054688 291.617188 L 369.160156 288.726562 L 366.589844 286.476562 L 363.378906 283.261719 L 362.09375 281.332031 L 361.773438 279.726562 L 361.773438 187.171875 L 362.09375 184.28125 L 366.269531 180.101562 L 368.839844 177.851562 L 382.65625 164.035156 L 383.941406 163.070312 L 395.507812 163.070312 Z M 399.683594 162.75 " />
        <path
            style=" stroke:none;fill-rule:nonzero;fill:rgb(99.215686%,49.411765%,9.803922%);fill-opacity:1;"
            d="M 270.203125 239.875 L 270.523438 239.875 L 270.203125 245.339844 L 269.882812 244.375 L 269.242188 244.375 L 268.597656 245.984375 L 263.136719 257.230469 L 259.601562 264.945312 L 255.425781 273.300781 L 251.890625 280.691406 L 247.714844 289.046875 L 244.179688 296.4375 L 237.753906 309.613281 L 227.152344 331.46875 L 220.082031 345.929688 L 217.511719 350.75 L 216.226562 352.355469 L 215.585938 352.355469 L 215.585938 240.839844 L 231.648438 240.519531 L 269.882812 240.199219 Z M 270.203125 239.875 " />
        <path
            style=" stroke:none;fill-rule:nonzero;fill:rgb(99.215686%,49.411765%,9.803922%);fill-opacity:1;"
            d="M 215.585938 128.039062 L 215.90625 128.039062 L 215.585938 179.136719 L 215.585938 240.839844 L 160.644531 240.839844 L 159.679688 241.164062 L 159.679688 240.519531 L 160.964844 239.234375 L 163.859375 233.769531 L 168.035156 224.773438 L 171.570312 217.703125 L 175.101562 210.3125 L 182.492188 195.207031 L 186.027344 187.816406 L 191.808594 175.925781 L 195.984375 166.925781 L 200.484375 157.929688 L 204.019531 150.535156 L 210.125 138.003906 L 213.65625 131.253906 Z M 215.585938 128.039062 " />
        <path
            style=" stroke:none;fill-rule:nonzero;fill:rgb(9.803922%,10.196079%,19.607843%);fill-opacity:1;"
            d="M 314.542969 162.105469 L 319.039062 162.425781 L 344.742188 162.75 L 344.742188 164.996094 L 344.101562 166.285156 L 336.710938 166.285156 L 336.390625 166.605469 L 329.964844 166.605469 L 329.320312 166.285156 L 329.320312 165.640625 L 328.359375 165.960938 L 321.929688 165.640625 L 316.148438 165.320312 L 311.007812 166.285156 L 299.761719 166.285156 L 294.945312 165.960938 L 281.128906 165.960938 L 276.628906 166.605469 L 272.453125 166.605469 L 272.132812 168.210938 L 271.488281 168.53125 L 271.167969 170.78125 L 270.847656 172.710938 L 270.523438 172.710938 L 270.523438 162.75 L 277.59375 162.425781 Z M 314.542969 162.105469 " />
        <path
            style=" stroke:none;fill-rule:nonzero;fill:rgb(12.54902%,11.372549%,19.215687%);fill-opacity:1;"
            d="M 299.121094 277.15625 L 341.210938 277.15625 L 344.421875 277.476562 L 344.421875 300.9375 L 343.78125 300.617188 L 343.136719 297.082031 L 343.136719 287.761719 L 341.851562 283.90625 L 340.566406 281.976562 L 340.566406 281.332031 L 338.316406 281.332031 L 337.03125 281.011719 L 316.46875 280.691406 L 316.46875 281.332031 L 319.039062 281.332031 L 321.289062 282.296875 L 321.289062 282.617188 L 317.753906 282.617188 L 315.828125 281.65625 L 315.828125 281.011719 L 315.183594 281.332031 L 311.648438 281.332031 L 310.367188 281.65625 L 304.582031 280.691406 L 300.40625 280.046875 L 298.15625 279.726562 L 296.550781 278.761719 L 295.90625 277.476562 Z M 299.121094 277.15625 " />
        <path
            style=" stroke:none;fill-rule:nonzero;fill:rgb(9.019608%,9.803922%,19.607843%);fill-opacity:1;"
            d="M 296.871094 218.34375 L 305.546875 218.34375 L 305.867188 218.667969 L 305.867188 218.34375 L 328.679688 218.34375 L 329 218.988281 L 329 242.769531 L 306.832031 242.769531 L 308.117188 242.125 L 316.789062 241.804688 L 320.324219 241.804688 L 324.179688 241.164062 L 323.539062 239.234375 L 326.109375 235.378906 L 326.429688 232.484375 L 326.109375 230.234375 L 326.429688 228.949219 L 326.429688 226.058594 L 326.109375 224.773438 L 325.464844 224.773438 L 325.464844 223.808594 L 319.683594 222.84375 L 315.828125 222.523438 L 315.507812 222.203125 L 310.367188 221.878906 L 304.582031 220.917969 L 303.296875 219.308594 L 304.261719 218.988281 L 303.296875 218.988281 L 300.085938 219.953125 L 298.15625 219.953125 L 297.835938 218.988281 Z M 296.871094 218.34375 " />
        <path
            style=" stroke:none;fill-rule:nonzero;fill:rgb(12.156863%,11.372549%,19.215687%);fill-opacity:1;"
            d="M 103.777344 162.425781 L 124.339844 162.425781 L 139.4375 162.75 L 157.429688 180.746094 L 160 183.957031 L 159.679688 185.246094 L 159.039062 183.957031 L 157.753906 183.316406 L 155.503906 180.101562 L 152.289062 177.210938 L 150.042969 174.640625 L 148.4375 173.355469 L 146.828125 172.390625 L 146.828125 171.746094 L 146.1875 171.425781 L 145.867188 170.460938 L 143.9375 168.855469 L 143.617188 168.210938 L 140.726562 166.605469 L 140.402344 166.285156 L 130.445312 165.960938 L 105.382812 165.960938 L 102.492188 166.925781 L 101.207031 168.210938 L 100.5625 168.210938 L 100.5625 168.855469 L 98.957031 170.140625 L 96.386719 171.105469 L 95.101562 171.746094 L 94.460938 171.425781 L 95.101562 170.140625 L 102.492188 162.75 Z M 103.777344 162.425781 " />
        <path
            style=" stroke:none;fill-rule:nonzero;fill:rgb(12.156863%,11.372549%,19.607843%);fill-opacity:1;"
            d="M 486.109375 163.070312 L 522.09375 163.070312 L 524.664062 165.320312 L 529.164062 170.140625 L 542.976562 183.957031 L 542.976562 185.886719 L 541.371094 184.921875 L 541.371094 184.28125 L 540.730469 184.28125 L 540.730469 183.636719 L 540.085938 183.636719 L 539.125 182.03125 L 539.125 181.386719 L 537.835938 180.746094 L 536.554688 179.460938 L 535.589844 179.136719 L 535.589844 178.496094 L 534.945312 178.496094 L 534.945312 177.53125 L 533.660156 176.246094 L 533.019531 175.925781 L 533.019531 175.28125 L 531.414062 174.640625 L 530.449219 173.996094 L 530.449219 173.355469 L 529.804688 173.355469 L 529.804688 172.710938 L 529.164062 172.710938 L 528.199219 171.105469 L 528.199219 170.460938 L 527.554688 170.460938 L 526.273438 168.53125 L 524.984375 166.925781 L 521.773438 164.996094 L 516.3125 164.355469 L 513.097656 164.355469 L 517.273438 164.675781 L 517.917969 165.320312 L 513.742188 165.320312 L 511.8125 164.996094 L 505.386719 164.675781 L 502.175781 164.035156 L 493.5 164.355469 L 486.429688 164.355469 L 484.824219 164.675781 Z M 486.109375 163.070312 " />
        <path
            style=" stroke:none;fill-rule:nonzero;fill:rgb(9.803922%,10.196079%,19.607843%);fill-opacity:1;"
            d="M 443.058594 254.660156 L 448.839844 254.660156 L 448.839844 264.300781 L 448.519531 270.085938 L 447.875 270.726562 L 446.914062 269.765625 L 445.304688 269.121094 L 444.984375 267.515625 L 446.59375 267.515625 L 446.59375 263.015625 L 445.949219 260.765625 L 445.304688 257.230469 L 443.378906 256.589844 L 442.734375 255.945312 Z M 443.058594 254.660156 " />
        <path
            style=" stroke:none;fill-rule:nonzero;fill:rgb(21.960784%,15.686275%,18.431373%);fill-opacity:1;"
            d="M 426.03125 163.070312 L 428.277344 163.390625 L 432.777344 167.246094 L 444.664062 179.136719 L 449.164062 184.28125 L 449.484375 185.246094 L 447.875 185.246094 L 445.628906 182.03125 L 442.734375 179.136719 L 442.734375 178.496094 L 440.808594 177.53125 L 440.808594 176.886719 L 440.164062 176.886719 L 438.882812 175.28125 L 438.238281 174.960938 L 438.238281 174.316406 L 436.953125 173.675781 L 435.667969 172.710938 L 435.667969 172.066406 L 435.023438 172.066406 L 435.023438 171.425781 L 433.742188 170.78125 L 432.453125 169.496094 L 432.453125 168.855469 L 430.847656 168.210938 L 429.882812 167.890625 L 429.5625 165.640625 L 426.992188 164.355469 Z M 426.03125 163.070312 " />
        <path
            style=" stroke:none;fill-rule:nonzero;fill:rgb(10.588235%,10.588235%,19.215687%);fill-opacity:1;"
            d="M 420.246094 186.53125 L 421.851562 186.53125 L 422.171875 189.101562 L 422.171875 191.027344 L 423.78125 191.351562 L 424.421875 192.3125 L 426.351562 192.636719 L 428.277344 196.171875 L 428.277344 197.777344 L 426.992188 198.097656 L 426.03125 197.136719 L 424.421875 197.457031 L 422.496094 194.5625 L 420.246094 192.3125 L 418.640625 190.386719 L 418.640625 189.421875 L 420.890625 189.742188 L 419.925781 187.171875 Z M 420.246094 186.53125 " />
        <path
            style=" stroke:none;fill-rule:nonzero;fill:rgb(9.019608%,9.803922%,19.607843%);fill-opacity:1;"
            d="M 362.414062 207.417969 L 362.734375 207.417969 L 362.734375 209.027344 L 363.378906 209.027344 L 364.019531 208.0625 L 364.664062 212.238281 L 363.699219 211.597656 L 363.699219 221.558594 L 364.019531 229.273438 L 363.378906 235.699219 L 362.414062 236.019531 L 362.09375 229.59375 Z M 362.414062 207.417969 " />
        <path
            style=" stroke:none;fill-rule:nonzero;fill:rgb(9.019608%,9.803922%,19.607843%);fill-opacity:1;"
            d="M 272.453125 167.890625 L 275.34375 167.890625 L 278.558594 168.210938 L 277.59375 169.175781 L 273.09375 171.425781 L 272.132812 174.640625 L 272.132812 177.210938 L 272.773438 179.136719 L 272.773438 182.996094 L 272.132812 185.566406 L 271.167969 185.246094 L 271.167969 183.636719 L 270.523438 183.636719 L 270.523438 173.355469 L 270.847656 173.355469 L 271.167969 174.960938 L 271.8125 169.820312 Z M 272.453125 167.890625 " />
        <path
            style=" stroke:none;fill-rule:nonzero;fill:rgb(9.803922%,10.980392%,20%);fill-opacity:1;"
            d="M 486.109375 163.070312 L 504.421875 163.070312 L 513.097656 163.390625 L 513.097656 164.355469 L 517.273438 164.675781 L 517.917969 165.320312 L 513.742188 165.320312 L 511.8125 164.996094 L 505.386719 164.675781 L 502.175781 164.035156 L 493.5 164.355469 L 486.429688 164.355469 L 484.824219 164.675781 Z M 486.109375 163.070312 " />
        <path
            style=" stroke:none;fill-rule:nonzero;fill:rgb(9.019608%,9.803922%,19.607843%);fill-opacity:1;"
            d="M 343.78125 171.425781 L 344.421875 172.066406 L 344.421875 186.207031 L 343.78125 187.171875 L 342.816406 185.566406 L 342.816406 184.921875 L 341.53125 184.28125 L 342.171875 178.496094 L 343.136719 171.746094 Z M 343.78125 171.425781 " />
        <path
            style=" stroke:none;fill-rule:nonzero;fill:rgb(9.019608%,9.803922%,19.607843%);fill-opacity:1;"
            d="M 270.523438 193.601562 L 270.847656 193.601562 L 271.488281 195.527344 L 272.453125 204.847656 L 272.453125 212.238281 L 271.8125 213.203125 L 272.132812 213.523438 L 272.132812 214.808594 L 270.847656 215.132812 L 270.523438 214.167969 L 270.523438 202.917969 L 271.167969 203.5625 L 271.167969 201.3125 L 270.847656 200.027344 L 270.523438 198.421875 Z M 270.523438 193.601562 " />
        <path
            style=" stroke:none;fill-rule:nonzero;fill:rgb(10.588235%,12.156863%,21.176471%);fill-opacity:1;"
            d="M 380.726562 165.960938 L 381.371094 165.960938 L 381.371094 166.925781 L 380.726562 166.925781 L 380.40625 167.570312 L 379.765625 167.890625 L 379.441406 168.855469 L 378.800781 168.855469 L 378.800781 169.496094 L 376.871094 170.78125 L 376.550781 171.425781 L 375.90625 171.425781 L 375.90625 172.066406 L 374.300781 173.355469 L 373.660156 174.640625 L 372.054688 175.601562 L 373.335938 175.28125 L 371.410156 177.851562 L 369.160156 179.460938 L 368.839844 178.816406 L 367.554688 180.101562 L 366.914062 179.78125 Z M 366.269531 180.101562 L 366.914062 180.421875 L 365.949219 182.671875 L 364.34375 183.957031 L 362.414062 184.601562 L 363.054688 182.996094 L 365.625 180.746094 Z M 366.269531 180.101562 " />
        <path style=" stroke:none;fill-rule:nonzero;fill:rgb(100%,100%,99.215686%);fill-opacity:1;"
            d="M 99.921875 184.921875 L 104.742188 184.921875 L 106.667969 185.886719 L 106.667969 187.492188 L 105.382812 188.136719 L 103.132812 188.136719 L 100.242188 187.171875 L 99.601562 186.53125 Z M 99.921875 184.921875 " />
        <path style=" stroke:none;fill-rule:nonzero;fill:rgb(100%,100%,99.215686%);fill-opacity:1;"
            d="M 482.578125 185.246094 L 486.429688 185.246094 L 489.324219 186.207031 L 490.289062 187.171875 L 489.964844 188.136719 L 485.46875 188.136719 L 483.21875 187.171875 L 482.578125 186.53125 Z M 482.578125 185.246094 " />
        <path
            style=" stroke:none;fill-rule:nonzero;fill:rgb(9.411765%,10.196079%,20%);fill-opacity:1;"
            d="M 270.523438 173.355469 L 270.847656 173.355469 L 271.167969 176.246094 L 272.132812 175.925781 L 272.453125 178.175781 L 272.773438 180.746094 L 272.773438 182.996094 L 272.132812 185.566406 L 271.167969 185.246094 L 271.167969 183.636719 L 270.523438 183.636719 Z M 270.523438 173.355469 " />
        <path
            style=" stroke:none;fill-rule:nonzero;fill:rgb(9.019608%,9.803922%,19.607843%);fill-opacity:1;"
            d="M 542.65625 188.777344 L 543.300781 189.101562 L 543.300781 195.207031 L 542.976562 208.382812 L 541.695312 208.703125 L 542.015625 201.632812 L 542.015625 197.777344 L 542.335938 195.847656 L 542.015625 189.742188 Z M 542.65625 188.777344 " />
        <path
            style=" stroke:none;fill-rule:nonzero;fill:rgb(9.019608%,9.803922%,19.607843%);fill-opacity:1;"
            d="M 101.527344 189.742188 L 103.453125 189.742188 L 104.417969 190.066406 L 106.347656 189.742188 L 106.667969 190.386719 L 105.382812 191.992188 L 103.777344 192.636719 L 102.8125 192.636719 L 102.492188 193.921875 L 101.527344 194.242188 L 101.207031 193.277344 L 101.847656 193.277344 L 101.207031 191.027344 L 100.5625 191.027344 L 100.5625 190.066406 Z M 101.527344 189.742188 " />
        <path
            style=" stroke:none;fill-rule:nonzero;fill:rgb(9.019608%,9.803922%,19.607843%);fill-opacity:1;"
            d="M 397.433594 278.121094 L 408.679688 278.121094 L 411.570312 278.441406 L 411.570312 278.761719 L 408.359375 279.40625 L 402.574219 279.40625 L 397.757812 278.761719 Z M 397.433594 278.121094 " />
        <path
            style=" stroke:none;fill-rule:nonzero;fill:rgb(13.725491%,11.764706%,19.215687%);fill-opacity:1;"
            d="M 424.421875 254.660156 L 427.636719 254.660156 L 431.8125 254.980469 L 431.8125 255.945312 L 430.847656 256.265625 L 430.207031 255.945312 L 430.207031 256.589844 L 428.921875 256.910156 L 426.03125 256.910156 L 426.03125 256.265625 L 425.066406 256.265625 L 425.066406 255.625 L 424.421875 255.625 Z M 424.421875 254.660156 " />
        <path
            style=" stroke:none;fill-rule:nonzero;fill:rgb(9.019608%,9.803922%,19.607843%);fill-opacity:1;"
            d="M 538.480469 182.671875 L 539.445312 182.996094 L 539.445312 183.636719 L 540.085938 183.636719 L 541.695312 185.886719 L 541.695312 188.457031 L 541.050781 192.3125 L 540.730469 192.3125 L 540.40625 190.707031 L 540.085938 192.3125 L 539.445312 192.3125 L 539.445312 189.101562 L 540.40625 188.136719 L 541.050781 187.816406 L 541.371094 186.207031 L 540.40625 186.53125 L 540.40625 185.886719 L 539.765625 185.886719 L 539.125 184.921875 L 539.125 183.316406 L 538.480469 183.316406 Z M 538.480469 182.671875 " />
        <path
            style=" stroke:none;fill-rule:nonzero;fill:rgb(10.196079%,11.764706%,21.176471%);fill-opacity:1;"
            d="M 506.351562 163.390625 L 513.097656 163.390625 L 513.097656 164.355469 L 517.273438 164.675781 L 517.917969 165.320312 L 513.742188 165.320312 L 511.8125 164.996094 L 507.957031 164.675781 L 506.03125 164.035156 Z M 506.351562 163.390625 " />
        <path
            style=" stroke:none;fill-rule:nonzero;fill:rgb(19.215687%,14.901961%,18.82353%);fill-opacity:1;"
            d="M 442.734375 178.175781 L 444.023438 178.496094 L 447.554688 182.351562 L 449.484375 184.921875 L 449.484375 185.246094 L 447.875 185.246094 L 445.628906 182.03125 L 442.734375 179.136719 Z M 442.734375 178.175781 " />
        <path
            style=" stroke:none;fill-rule:nonzero;fill:rgb(9.019608%,9.803922%,19.607843%);fill-opacity:1;"
            d="M 364.34375 267.191406 L 364.664062 267.191406 L 364.984375 270.726562 L 364.34375 274.585938 L 363.699219 274.585938 L 362.414062 279.082031 L 362.09375 279.082031 L 362.09375 274.585938 L 363.054688 274.261719 L 363.378906 270.085938 L 363.378906 269.121094 L 364.019531 268.800781 Z M 364.34375 267.191406 " />
        <path
            style=" stroke:none;fill-rule:nonzero;fill:rgb(9.019608%,9.803922%,19.607843%);fill-opacity:1;"
            d="M 364.34375 253.375 L 364.664062 253.375 L 364.984375 264.621094 L 364.34375 266.550781 L 364.019531 266.550781 L 363.699219 264.621094 L 364.019531 260.765625 L 363.699219 258.195312 L 363.699219 255.300781 Z M 364.34375 253.375 " />
        <path
            style=" stroke:none;fill-rule:nonzero;fill:rgb(19.607843%,14.901961%,18.82353%);fill-opacity:1;"
            d="M 81.929688 281.332031 L 84.179688 283.261719 L 86.425781 285.511719 L 88.996094 287.761719 L 93.816406 292.582031 L 93.496094 293.222656 L 88.675781 288.402344 L 86.105469 286.152344 L 81.929688 281.976562 Z M 81.929688 281.332031 " />
        <path
            style=" stroke:none;fill-rule:nonzero;fill:rgb(9.019608%,9.803922%,19.607843%);fill-opacity:1;"
            d="M 433.417969 254.980469 L 438.558594 254.980469 L 439.84375 255.625 L 435.988281 256.589844 L 433.742188 256.265625 L 432.777344 255.300781 Z M 433.417969 254.980469 " />
        <path
            style=" stroke:none;fill-rule:nonzero;fill:rgb(9.019608%,9.803922%,19.607843%);fill-opacity:1;"
            d="M 270.847656 220.273438 L 272.132812 220.273438 L 272.453125 222.203125 L 271.8125 226.378906 L 270.847656 227.664062 Z M 270.847656 220.273438 " />
        <path
            style=" stroke:none;fill-rule:nonzero;fill:rgb(10.588235%,10.980392%,20%);fill-opacity:1;"
            d="M 383.941406 163.070312 L 390.367188 163.070312 L 390.6875 163.710938 L 385.226562 164.355469 L 382.65625 164.996094 Z M 383.941406 163.070312 " />
        <path
            style=" stroke:none;fill-rule:nonzero;fill:rgb(9.019608%,9.803922%,19.607843%);fill-opacity:1;"
            d="M 438.882812 256.589844 L 442.414062 256.589844 L 444.34375 257.550781 L 444.984375 258.835938 L 445.304688 262.050781 L 444.984375 263.65625 L 444.34375 263.335938 L 444.34375 260.765625 L 443.058594 258.195312 L 441.453125 257.230469 L 438.882812 256.910156 Z M 438.882812 256.589844 " />
        <path
            style=" stroke:none;fill-rule:nonzero;fill:rgb(9.019608%,9.803922%,19.607843%);fill-opacity:1;"
            d="M 362.414062 244.054688 L 363.054688 245.019531 L 363.378906 248.234375 L 363.378906 250.160156 L 362.414062 251.445312 L 362.09375 250.804688 L 362.09375 245.019531 Z M 362.414062 244.054688 " />
        <path
            style=" stroke:none;fill-rule:nonzero;fill:rgb(13.333334%,12.156863%,19.215687%);fill-opacity:1;"
            d="M 367.554688 179.136719 L 368.195312 179.460938 L 366.914062 180.101562 Z M 366.269531 180.101562 L 366.914062 180.421875 L 365.949219 182.671875 L 364.34375 183.957031 L 362.414062 184.601562 L 363.054688 182.996094 L 365.625 180.746094 Z M 366.269531 180.101562 " />
        <path
            style=" stroke:none;fill-rule:nonzero;fill:rgb(13.333334%,11.764706%,19.215687%);fill-opacity:1;"
            d="M 418.960938 275.226562 L 419.925781 275.546875 L 419.925781 277.15625 L 419.28125 277.15625 L 418.960938 278.121094 L 417.996094 278.761719 L 416.070312 278.441406 L 417.996094 276.191406 Z M 418.960938 275.226562 " />
        <path style=" stroke:none;fill-rule:nonzero;fill:rgb(100%,100%,99.215686%);fill-opacity:1;"
            d="M 99.601562 191.027344 L 101.527344 191.671875 L 101.847656 193.277344 L 99.921875 193.601562 L 98.636719 192.636719 L 98.957031 191.351562 Z M 99.601562 191.027344 " />
        <path
            style=" stroke:none;fill-rule:nonzero;fill:rgb(9.019608%,9.803922%,19.607843%);fill-opacity:1;"
            d="M 132.050781 239.554688 L 135.261719 240.519531 L 135.585938 241.484375 L 134.621094 242.769531 L 133.015625 243.089844 L 132.691406 242.449219 L 133.015625 241.484375 Z M 132.050781 239.554688 " />
        <path
            style=" stroke:none;fill-rule:nonzero;fill:rgb(9.019608%,10.196079%,20%);fill-opacity:1;"
            d="M 120.164062 277.476562 L 126.585938 277.476562 L 125.945312 277.796875 L 125.625 278.441406 L 124.015625 278.761719 L 121.769531 278.761719 L 120.164062 278.441406 Z M 120.164062 277.476562 " />
        <path style=" stroke:none;fill-rule:nonzero;fill:rgb(100%,100%,99.215686%);fill-opacity:1;"
            d="M 286.910156 245.660156 L 287.554688 245.984375 L 288.515625 249.839844 L 287.554688 250.160156 L 286.269531 249.519531 L 286.269531 247.269531 Z M 286.910156 245.660156 " />
        <path
            style=" stroke:none;fill-rule:nonzero;fill:rgb(9.411765%,10.588235%,20.392157%);fill-opacity:1;"
            d="M 81.609375 220.917969 L 82.25 220.917969 L 82.890625 222.523438 L 82.890625 223.808594 L 83.535156 224.128906 L 84.179688 225.09375 L 82.25 224.773438 L 81.285156 223.808594 L 81.285156 221.238281 Z M 81.609375 220.917969 " />
        <path
            style=" stroke:none;fill-rule:nonzero;fill:rgb(9.019608%,9.803922%,19.607843%);fill-opacity:1;"
            d="M 447.875 274.585938 L 448.519531 274.585938 L 448.519531 278.121094 L 446.914062 278.121094 L 446.59375 276.835938 L 446.914062 275.226562 Z M 447.875 274.585938 " />
        <path
            style=" stroke:none;fill-rule:nonzero;fill:rgb(11.372549%,11.372549%,20%);fill-opacity:1;"
            d="M 96.707031 257.230469 L 100.882812 257.230469 L 102.8125 257.875 L 101.847656 258.195312 L 101.527344 258.835938 L 99.601562 258.835938 L 98.636719 257.875 L 96.707031 257.550781 Z M 96.707031 257.230469 " />
        <path
            style=" stroke:none;fill-rule:nonzero;fill:rgb(9.019608%,9.803922%,19.607843%);fill-opacity:1;"
            d="M 542.335938 247.589844 L 542.976562 247.910156 L 542.976562 252.730469 L 542.335938 253.375 L 541.695312 248.554688 Z M 542.335938 247.589844 " />
        <path
            style=" stroke:none;fill-rule:nonzero;fill:rgb(9.019608%,9.803922%,19.607843%);fill-opacity:1;"
            d="M 102.171875 260.125 L 102.8125 261.410156 L 102.171875 263.015625 L 100.882812 263.015625 L 100.5625 261.730469 L 99.921875 260.445312 L 101.847656 260.445312 Z M 102.171875 260.125 " />
        <path style=" stroke:none;fill-rule:nonzero;fill:rgb(100%,100%,99.215686%);fill-opacity:1;"
            d="M 84.820312 265.265625 L 88.03125 267.191406 L 88.03125 268.15625 L 85.785156 267.835938 L 84.820312 267.191406 Z M 84.820312 265.265625 " />
        <path
            style=" stroke:none;fill-rule:nonzero;fill:rgb(9.019608%,9.803922%,19.607843%);fill-opacity:1;"
            d="M 364.019531 237.949219 L 364.664062 237.949219 L 364.664062 243.410156 L 364.019531 244.375 L 363.378906 241.164062 Z M 364.019531 237.949219 " />
        <path
            style=" stroke:none;fill-rule:nonzero;fill:rgb(9.019608%,9.803922%,19.607843%);fill-opacity:1;"
            d="M 333.5 281.976562 L 336.710938 282.296875 L 337.675781 282.617188 L 337.675781 283.261719 L 338.316406 283.261719 L 337.996094 283.90625 L 336.710938 283.261719 L 334.78125 282.941406 L 328.679688 282.617188 L 328.679688 282.296875 Z M 333.5 281.976562 " />
        <path style=" stroke:none;fill-rule:nonzero;fill:rgb(100%,100%,99.215686%);fill-opacity:1;"
            d="M 482.578125 191.671875 L 483.859375 191.992188 L 484.183594 193.277344 L 482.898438 194.886719 L 481.933594 194.5625 Z M 482.578125 191.671875 " />
        <path style=" stroke:none;fill-rule:nonzero;fill:rgb(100%,100%,99.215686%);fill-opacity:1;"
            d="M 469.402344 266.230469 L 471.007812 267.835938 L 471.332031 269.441406 L 470.046875 269.441406 L 469.082031 268.15625 Z M 469.402344 266.230469 " />
        <path
            style=" stroke:none;fill-rule:nonzero;fill:rgb(9.019608%,9.803922%,19.607843%);fill-opacity:1;"
            d="M 486.429688 188.457031 L 489.324219 188.457031 L 489 190.066406 L 487.074219 190.066406 L 486.429688 189.742188 Z M 486.429688 188.457031 " />
        <path style=" stroke:none;fill-rule:nonzero;fill:rgb(100%,100%,99.215686%);fill-opacity:1;"
            d="M 153.578125 256.910156 L 154.859375 257.230469 L 154.859375 258.835938 L 152.613281 259.160156 L 152.289062 258.195312 Z M 153.578125 256.910156 " />
        <path
            style=" stroke:none;fill-rule:nonzero;fill:rgb(9.019608%,9.803922%,19.607843%);fill-opacity:1;"
            d="M 502.816406 163.390625 L 506.351562 163.390625 L 507.316406 164.035156 L 507.957031 164.675781 L 505.386719 164.675781 L 502.816406 164.035156 Z M 502.816406 163.390625 " />
        <path
            style=" stroke:none;fill-rule:nonzero;fill:rgb(9.019608%,9.803922%,19.607843%);fill-opacity:1;"
            d="M 505.386719 225.414062 L 506.992188 225.738281 L 510.527344 227.664062 L 511.492188 228.949219 L 511.171875 229.59375 L 509.886719 227.984375 L 506.03125 226.378906 Z M 505.386719 225.414062 " />
        <path
            style=" stroke:none;fill-rule:nonzero;fill:rgb(9.019608%,9.803922%,19.607843%);fill-opacity:1;"
            d="M 372.695312 175.28125 L 373.335938 175.601562 L 371.410156 177.851562 L 369.160156 179.460938 L 369.160156 178.175781 L 370.445312 177.851562 L 370.765625 176.566406 Z M 372.695312 175.28125 " />
        <path
            style=" stroke:none;fill-rule:nonzero;fill:rgb(9.411765%,10.588235%,20%);fill-opacity:1;"
            d="M 380.726562 165.960938 L 381.371094 165.960938 L 381.371094 166.925781 L 380.726562 166.925781 L 380.40625 167.570312 L 379.765625 167.890625 L 379.441406 168.855469 L 378.800781 168.855469 L 378.800781 169.496094 L 377.195312 169.820312 L 379.121094 167.570312 Z M 380.726562 165.960938 " />
        <path
            style=" stroke:none;fill-rule:nonzero;fill:rgb(9.019608%,9.803922%,19.607843%);fill-opacity:1;"
            d="M 447.554688 279.40625 L 448.839844 279.40625 L 448.839844 281.65625 L 447.875 281.976562 L 447.875 281.332031 L 447.234375 281.332031 L 446.914062 280.046875 Z M 447.554688 279.40625 " />
        <path
            style=" stroke:none;fill-rule:nonzero;fill:rgb(9.019608%,9.803922%,19.607843%);fill-opacity:1;"
            d="M 477.4375 229.273438 L 478.71875 229.59375 L 480.648438 230.878906 L 482.898438 231.519531 L 482.578125 232.164062 L 480.96875 231.84375 L 478.078125 230.558594 Z M 477.4375 229.273438 " />
        <path
            style=" stroke:none;fill-rule:nonzero;fill:rgb(14.509805%,12.54902%,19.215687%);fill-opacity:1;"
            d="M 524.984375 298.6875 L 525.949219 298.6875 L 525.628906 299.972656 L 523.703125 301.257812 L 522.738281 300.9375 L 523.378906 300.9375 L 524.023438 299.332031 Z M 524.984375 298.6875 " />
        <path style=" stroke:none;fill-rule:nonzero;fill:rgb(100%,100%,99.215686%);fill-opacity:1;"
            d="M 510.207031 237.628906 L 511.8125 237.949219 L 512.457031 238.589844 L 509.5625 239.234375 L 508.28125 239.554688 L 508.601562 238.589844 Z M 510.207031 237.628906 " />
        <path
            style=" stroke:none;fill-rule:nonzero;fill:rgb(10.980392%,13.333334%,21.960784%);fill-opacity:1;"
            d="M 371.730469 174.960938 L 372.375 175.28125 L 370.765625 176.886719 L 370.445312 177.851562 L 368.519531 179.136719 L 367.875 178.816406 Z M 371.730469 174.960938 " />
        <path
            style=" stroke:none;fill-rule:nonzero;fill:rgb(9.019608%,9.803922%,19.607843%);fill-opacity:1;"
            d="M 150.363281 255.625 L 152.933594 255.625 L 152.613281 256.910156 L 150.363281 256.589844 Z M 150.363281 255.625 " />
        <path
            style=" stroke:none;fill-rule:nonzero;fill:rgb(21.960784%,16.078432%,18.82353%);fill-opacity:1;"
            d="M 114.699219 240.839844 L 115.984375 240.839844 L 115.984375 241.484375 L 117.59375 242.125 L 117.914062 243.089844 L 115.984375 242.449219 L 114.699219 241.484375 Z M 114.699219 240.839844 " />
        <path
            style=" stroke:none;fill-rule:nonzero;fill:rgb(9.019608%,9.803922%,19.607843%);fill-opacity:1;"
            d="M 83.214844 221.238281 L 83.855469 222.203125 L 83.855469 222.84375 L 86.105469 223.488281 L 86.425781 224.128906 L 85.140625 224.453125 L 83.214844 223.164062 L 82.890625 221.558594 Z M 83.214844 221.238281 " />
        <path
            style=" stroke:none;fill-rule:nonzero;fill:rgb(9.019608%,9.803922%,19.607843%);fill-opacity:1;"
            d="M 82.570312 216.417969 L 83.535156 216.417969 L 83.535156 219.628906 L 82.890625 219.628906 L 82.570312 218.988281 Z M 82.570312 216.417969 " />
        <path
            style=" stroke:none;fill-rule:nonzero;fill:rgb(13.333334%,12.941177%,20.392157%);fill-opacity:1;"
            d="M 497.035156 241.164062 L 498.960938 241.804688 L 501.210938 243.089844 L 499.925781 243.410156 L 497.035156 241.804688 Z M 497.035156 241.164062 " />
        <path style=" stroke:none;fill-rule:nonzero;fill:rgb(100%,100%,99.215686%);fill-opacity:1;"
            d="M 523.703125 239.875 L 524.023438 239.875 L 524.023438 243.089844 L 523.378906 243.734375 L 523.058594 243.089844 L 523.378906 240.199219 Z M 523.703125 239.875 " />
        <path
            style=" stroke:none;fill-rule:nonzero;fill:rgb(32.941177%,20.392157%,16.862746%);fill-opacity:1;"
            d="M 373.980469 292.902344 L 376.230469 294.832031 L 377.195312 296.117188 L 375.90625 295.796875 L 373.980469 293.546875 Z M 373.980469 292.902344 " />
        <path style=" stroke:none;fill-rule:nonzero;fill:rgb(100%,100%,99.215686%);fill-opacity:1;"
            d="M 444.34375 265.585938 L 445.949219 265.90625 L 446.269531 267.515625 L 444.984375 267.191406 L 444.34375 266.550781 Z M 444.34375 265.585938 " />
        <path style=" stroke:none;fill-rule:nonzero;fill:rgb(100%,100%,99.215686%);fill-opacity:1;"
            d="M 132.691406 237.628906 L 134.296875 237.628906 L 134.296875 238.914062 L 133.015625 239.234375 L 132.371094 237.949219 Z M 132.691406 237.628906 " />
        <path style=" stroke:none;fill-rule:nonzero;fill:rgb(100%,100%,99.215686%);fill-opacity:1;"
            d="M 515.992188 237.304688 L 516.953125 237.628906 L 516.953125 239.234375 L 515.667969 239.234375 L 515.347656 237.949219 Z M 515.992188 237.304688 " />
    </g>
</svg>