<?xml version="1.0" encoding="UTF-8"?>
<svg version="1.1" viewBox="0 0 896 900" width="224" height="225" xmlns="http://www.w3.org/2000/svg">
    <path transform="translate(0)" d="m0 0h896v900h-896z" fill="#1D2336" />
    <path transform="translate(0,458)"
        d="m0 0h1l2 34 6 42 7 31 8 27 11 30 11 24 11 22 15 25 13 19 13 17 11 13 12 14 24 24 8 7 15 13 16 12 20 14 25 15 27 14 17 8 26 10 24 8 32 8 43 7 25 3v1h-423z" />
    <path transform="translate(0)"
        d="m0 0h428v1l-38 4-35 6-32 8-33 11-26 11-23 11-23 13-17 11-17 12-13 10-13 11-8 7-12 11-17 17-7 8-9 10-13 17-12 16-10 16-12 20-14 27-10 23-9 24-9 30-7 31-6 41-2 32h-1z" />
    <path transform="translate(465)"
        d="m0 0h431v413h-1l-7-46-6-27-7-25-8-24-10-24-12-25-15-27-16-24-14-19-11-13-12-14-7-7v-2l-4-2v-2l-4-2-11-11-8-7-13-11-13-10-18-13-19-12-21-12-17-9-25-11-27-10-31-9-27-6-35-5-32-3z" />
    <path transform="translate(895,485)"
        d="m0 0h1v415h-420v-1l50-7 37-8 26-8 25-9 25-11 16-8 17-9 21-13 13-9 14-10 17-14 10-9 8-7 24-24 7-8 10-12 13-17 12-17 13-21 13-24 12-25 11-29 9-28 7-28 7-41z" />
    <path transform="translate(469,453)"
        d="m0 0h111l1 4-17 35-13 28-8 16-8 17-8 16-8 17-8 16-8 17-7 15-8 16-16 33-9 19-12 24h-2l-1-3v-268l1-1z"
        fill="#FA7510" />
    <path transform="translate(447,181)"
        d="m0 0 2 1v272h-133l1-6 8-16 19-39 11-23 17-35 12-25 28-58 16-33 12-25 6-12z"
        fill="#FA7510" />
    <path transform="translate(89,716)"
        d="m0 0 7 6 5 6 5 8 14 13 7 8 9 9 8 7 19 19 2 1v3l3-1 7 7 5 3 11 9 5 3 1 3 5 1 6 4 4 2 7 5 8 4 2 4 3-1 5 3v2l4 1 15 8 14 7 7 2v2l2 1-6-1-29-14-19-10-24-15-18-13-16-12-15-13-16-15-19-19-9-11-9-10-10-13z"
        fill="#111324" />
    <path transform="translate(582,454)"
        d="m0 0h2l-3 10-7 14-7 16-8 16h-2l-1 6-5 10-8 18-7 14-11 23-16 32-3 4-1-5 11-22 11-23 10-21 8-16 15-31 11-23 9-19z"
        fill="#111223" />
    <path transform="translate(656,53)"
        d="m0 0 5 1 21 12 21 14 18 13 17 14 11 10 6 5-1 2-4-2v-2l-5-2-3-1v-2l-4-2v-2l-3-1-5-6-3-2v-2l-6-1-6-5-4-4v-2l-7-2-9-8-10-6v-2l-6-2-7-4-4-2v-2h-3v-2l-5-2z"
        fill="#111224" />
    <path transform="translate(161,105)"
        d="m0 0 2 1-4 5-2 1-1 3-3 1-1 3-4 1v3l-8 7-8 8-5 6-5 4h-2l-1 3-4 4-4 1 2-4 16-17 17-17 8-7z"
        fill="#121325" />
    <path transform="translate(494,638)" d="m0 0h2l-3 9-17 35-5 9-2-1 1-5 11-23 8-16z"
        fill="#111224" />
    <path transform="translate(606,867)" d="m0 0h3v3l-35 12-8 2h-7l4-2 13-4 24-8 1-1h5z"
        fill="#141628" />
    <path transform="translate(53,238)" d="m0 0h2l-1 4-8 16-3 9h-2l-1 5-3 7h-1l1-8z" fill="#16192B" />
    <path transform="translate(820,201)"
        d="m0 0h2l11 18 5 9-1 3-2-2v-4l-3-1-1-5-3-1-1-6-3-1-1-5-3-1-1-3z" fill="#121425" />
    <path transform="translate(192,81)" d="m0 0h3v2l-3 1-1 2-9 5-3 4-3 1-4 4-7 4 2-4 18-14z"
        fill="#141627" />
    <path transform="translate(89,716)" d="m0 0 7 6 5 6 3 6-1 2-8-9-6-8z" fill="#131527" />
    <path transform="translate(656,53)" d="m0 0 5 1 21 12 1 2-6-1-5-3-4-2v-2h-3v-2l-5-2z"
        fill="#131526" />
    <path transform="translate(800,173)"
        d="m0 0h2l13 18 2 3-1 3-1-3h-2l-6-10v-2h-2v-2l-3-1v-3l-3-1z" fill="#131527" />
    <path transform="translate(257,854)" d="m0 0 5 2 8 4 7 2v2l2 1-6-1-16-8z" fill="#131526" />
    <path transform="translate(44,260)" d="m0 0v3l-1 4h-2l-1 5-3 7h-1l1-8 4-9z" fill="#131426" />
    <path transform="translate(783,153)" d="m0 0 4 2 11 13 1 4-5-5-1-3-3-1-4-4-1-3-2-1z"
        fill="#131527" />
    <path transform="translate(622,861)" d="m0 0h4v2l-12 5-4-1z" fill="#141628" />
    <path transform="translate(34,282)" d="m0 0 1 3-5 12h-1l1-9z" fill="#141628" />
    <path transform="translate(606,867)" d="m0 0h3v3l-8 3h-5l5-4h5z" fill="#131527" />
    <path transform="translate(651,848)" d="m0 0h2v2l-10 5-4-1 8-4z" fill="#121425" />
</svg>